<svg width="30" height="30" viewBox="0 0 30 30" fill="none" xmlns="http://www.w3.org/2000/svg">
    <g clip-path="url(#clip0_710_422)">
        <path
            d="M6.99735 26.4377H9.86297C10.1271 26.4377 10.3252 26.5169 10.5233 26.7149L12.5569 28.7344C14.2209 30.4109 15.7659 30.3977 17.4298 28.7344L19.4635 26.7149C19.6748 26.5169 19.8597 26.4377 20.137 26.4377H22.9893C25.3532 26.4377 26.4492 25.3553 26.4492 22.9793V20.1282C26.4492 19.851 26.5285 19.6662 26.7266 19.455L28.747 17.4222C30.4242 15.759 30.411 14.2147 28.747 12.5514L26.7266 10.5187C26.5285 10.3207 26.4492 10.1227 26.4492 9.85866V6.99429C26.4492 4.64471 25.3664 3.53592 22.9893 3.53592H20.137C19.8597 3.53592 19.6748 3.46992 19.4635 3.27193L17.4298 1.25234C15.7659 -0.424041 14.2209 -0.410841 12.5569 1.25234L10.5233 3.27193C10.3252 3.46992 10.1271 3.53592 9.86297 3.53592H6.99735C4.63354 3.53592 3.53747 4.61831 3.53747 6.99429V9.85866C3.53747 10.1227 3.47144 10.3207 3.27336 10.5187L1.25289 12.5514C-0.424227 14.2147 -0.411021 15.759 1.25289 17.4222L3.27336 19.455C3.47144 19.6662 3.53747 19.851 3.53747 20.1282V22.9793C3.53747 25.3422 4.63354 26.4377 6.99735 26.4377ZM13.5209 21.435C13.0719 21.435 12.7022 21.2634 12.3588 20.8014L9.04423 16.7358C8.84614 16.4718 8.72729 16.1682 8.72729 15.8778C8.72729 15.2706 9.18949 14.7822 9.79696 14.7822C10.1667 14.7822 10.4572 14.9142 10.7874 15.3498L13.4681 18.8082L19.1069 9.75307C19.3579 9.34388 19.7012 9.14587 20.0578 9.14587C20.6256 9.14587 21.167 9.54187 21.167 10.1491C21.167 10.4527 20.9953 10.7563 20.8368 11.0203L14.6302 20.8014C14.3529 21.2238 13.9699 21.435 13.5209 21.435Z"
            fill="#1B4A9D" />
    </g>
    <defs>
        <clipPath id="clip0_710_422">
            <rect width="30" height="30" fill="white" />
        </clipPath>
    </defs>
</svg>
    