<svg width="30" height="30" viewBox="0 0 30 30" fill="none" xmlns="http://www.w3.org/2000/svg">
    <g clip-path="url(#clip0_710_433)">
        <path
            d="M7.30882 16.5801C6.72058 16.5801 6.2794 16.1392 6.2794 15.5512C6.2794 14.978 6.72058 14.537 7.30882 14.537H13.9706V5.6443C13.9706 5.07105 14.4117 4.63009 14.9853 4.63009C15.5588 4.63009 16.0147 5.07105 16.0147 5.6443V15.5512C16.0147 16.1392 15.5588 16.5801 14.9853 16.5801H7.30882ZM15 29.9854C23.2059 29.9854 30 23.1799 30 14.9927C30 6.7908 23.1912 0 14.9853 0C6.79411 0 0 6.7908 0 14.9927C0 23.1799 6.80881 29.9854 15 29.9854Z"
            fill="#1B4A9D" />
    </g>
    <defs>
        <clipPath id="clip0_710_433">
            <rect width="30" height="30" fill="white" />
        </clipPath>
    </defs>
</svg>
    