<svg width="30" height="30" viewBox="0 0 30 30" fill="none" xmlns="http://www.w3.org/2000/svg">
    <g clip-path="url(#clip0_710_399)">
        <path
            d="M15 29.9854C23.2059 29.9854 30 23.1799 30 14.9927C30 6.7908 23.1912 0 14.9853 0C6.79411 0 0 6.7908 0 14.9927C0 23.1799 6.80881 29.9854 15 29.9854ZM15 23.6502C14.5882 23.6502 14.2794 23.3563 14.2794 22.93V21.8422C12.25 21.6512 10.5588 20.5341 10.1323 18.785C10.0882 18.6379 10.0588 18.4763 10.0588 18.3146C10.0588 17.7854 10.4265 17.418 10.9412 17.418C11.397 17.418 11.7059 17.6531 11.8823 18.1823C12.1323 19.1818 12.9264 19.9462 14.2794 20.1372V15.6689L14.1764 15.6394C11.6471 15.0368 10.3382 13.8903 10.3382 11.9647C10.3382 9.89224 11.9853 8.45175 14.2794 8.20188V7.15827C14.2794 6.73201 14.5882 6.43803 15 6.43803C15.4118 6.43803 15.7206 6.73201 15.7206 7.15827V8.20188C17.6617 8.42235 19.2206 9.55416 19.6176 11.1857C19.6471 11.3474 19.6912 11.5091 19.6912 11.6561C19.6912 12.1852 19.3089 12.5527 18.7941 12.5527C18.3088 12.5527 18.0147 12.2587 17.8676 11.8031C17.5589 10.7889 16.8088 10.1421 15.7206 9.95103V14.1695L15.9265 14.2137C18.5588 14.684 19.897 15.9333 19.897 17.9912C19.897 20.2843 18.0588 21.6512 15.7206 21.8716V22.93C15.7206 23.3563 15.4118 23.6502 15 23.6502ZM14.2794 13.7874V9.95103C13 10.1715 12.2206 10.9505 12.2206 11.8619C12.2206 12.7585 12.8235 13.3611 14.1764 13.758L14.2794 13.7874ZM15.7206 16.0215V20.1372C17.2646 19.9608 18.0147 19.1524 18.0147 18.0941C18.0147 17.1387 17.5147 16.5067 16.0441 16.1097L15.7206 16.0215Z"
            fill="#1B4A9D" />
    </g>
    <defs>
        <clipPath id="clip0_710_399">
            <rect width="30" height="30" fill="white" />
        </clipPath>
    </defs>
</svg>
    