<svg width="30" height="30" viewBox="0 0 30 30" fill="none" xmlns="http://www.w3.org/2000/svg">
    <g clip-path="url(#clip0_710_362)">
        <path
            d="M15 29.9854C23.2059 29.9854 30 23.1799 30 14.9927C30 6.79081 23.1912 0 14.9853 0C6.79411 0 0 6.79081 0 14.9927C0 23.1799 6.80881 29.9854 15 29.9854ZM11.397 23.1505C9.72058 23.1505 8.86763 22.3126 8.86763 20.5928V8.99561C8.86763 7.30526 9.72058 6.43803 11.397 6.43803H14.2794V12.538C14.2794 13.5963 14.7794 14.0814 15.8235 14.0814H21.8383V20.5928C21.8383 22.2833 21 23.1505 19.3089 23.1505H11.397ZM15.9411 12.8467C15.6618 12.8467 15.5 12.6997 15.5 12.4057V6.52623C15.8382 6.57032 16.1912 6.8055 16.5736 7.20237L21.0588 11.7737C21.4558 12.1705 21.6912 12.5086 21.7353 12.8467H15.9411Z"
            fill="#1B4A9D" />
    </g>
    <defs>
        <clipPath id="clip0_710_362">
            <rect width="30" height="30" fill="white" />
        </clipPath>
    </defs>
</svg>
    