<svg width="30" height="30" viewBox="0 0 30 30" fill="none" xmlns="http://www.w3.org/2000/svg">
    <g clip-path="url(#clip0_710_410)">
        <path
            d="M25.6066 4.39348C19.8041 -1.40899 10.1982 -1.41133 4.3986 4.38826C-1.39061 10.1775 -1.38825 19.8043 4.41419 25.6067C10.2062 31.3987 19.8226 31.3907 25.6118 25.6015C31.4114 19.8019 31.3986 10.1855 25.6066 4.39348ZM23.334 21.2657L23.23 21.3697C20.3614 24.2383 15.246 21.8044 11.7209 18.2792C8.19571 14.7541 5.76179 9.63864 8.63037 6.77006L8.73435 6.66608C9.53471 5.86573 10.5534 5.63731 11.3645 6.44838C11.9676 7.0515 12.6436 7.78983 13.486 9.35983C13.9644 10.254 13.9334 10.8881 13.1955 11.6677L12.5303 12.3537C12.416 12.468 12.3952 12.6135 12.4992 12.8215C12.7489 13.2998 13.4456 14.2875 14.5791 15.421C15.7125 16.5545 16.7003 17.2512 17.1786 17.5009C17.3865 17.6049 17.5321 17.5841 17.6464 17.4698L18.3324 16.8046C19.1015 16.0562 19.7357 16.0252 20.6403 16.5141C22.2103 17.3565 22.9486 18.0324 23.5517 18.6356C24.3628 19.4467 24.1344 20.4654 23.334 21.2657Z"
            fill="#1B4A9D" />
    </g>
    <defs>
        <clipPath id="clip0_710_410">
            <rect width="30" height="30" fill="white" />
        </clipPath>
    </defs>
</svg>
    