<svg width="102" height="92" viewBox="0 0 102 92" fill="none" xmlns="http://www.w3.org/2000/svg">
<g clip-path="url(#clip0_638_1145)">
<mask id="mask0_638_1145" style="mask-type:luminance" maskUnits="userSpaceOnUse" x="0" y="0" width="102" height="92">
<path d="M0 0H102V91.9997H0V0Z" fill="white"/>
</mask>
<g mask="url(#mask0_638_1145)">
<path d="M102 91.9995H0V0.000488281H102V91.9995Z" fill="white"/>
</g>
<path d="M20.4806 65.0016H16.5752V60.2122H20.4806V60.7728H17.1691V62.3399H20.1391V62.8738H17.1691V64.4402H20.4806V65.0016Z" fill="#292929"/>
<path d="M29.67 65.0016H29.0762V60.2122H29.67L33.0294 64.1395V60.2122H33.624V65.0016H33.0294L29.67 61.0806V65.0016Z" fill="#292929"/>
<path d="M46.2891 65.0016H42.3837V60.2122H46.2891V60.7728H42.9775V62.3399H45.9476V62.8738H42.9775V64.4402H46.2891V65.0016Z" fill="#292929"/>
<path d="M55.4786 62.5449H57.3087C57.677 62.5449 57.9455 62.4745 58.1141 62.3329C58.2828 62.192 58.3664 61.9659 58.3664 61.6553C58.3664 61.3503 58.2828 61.1264 58.1141 60.9848C57.9455 60.8439 57.677 60.7728 57.3087 60.7728H55.4786V62.5449ZM55.4786 65.0016H54.8848V60.2122H57.3425C57.9068 60.2122 58.3179 60.3199 58.5752 60.5369C58.8317 60.7538 58.961 61.0989 58.961 61.5736C58.961 62.2124 58.7263 62.6252 58.2575 62.8118C58.7038 62.9717 58.9266 63.3274 58.9266 63.8796V65.0016H58.3327V63.9C58.3327 63.6218 58.254 63.4197 58.0973 63.2943C57.9398 63.1689 57.6882 63.1062 57.3425 63.1062H55.4786V65.0016Z" fill="#292929"/>
<path d="M67.373 62.5996C67.373 61.7467 67.5663 61.1276 67.9529 60.7423C68.3401 60.3563 68.9586 60.1641 69.8104 60.1641C70.4977 60.1641 71.0297 60.2859 71.4078 60.5296C71.7852 60.774 72.0333 61.1607 72.1521 61.6896H71.5308C71.308 61.0466 70.7338 60.7247 69.8104 60.7247C69.1638 60.7247 68.695 60.874 68.4033 61.1734C68.1124 61.472 67.9669 61.9495 67.9669 62.6067C67.9669 63.268 68.1187 63.747 68.4237 64.0435C68.7287 64.34 69.2341 64.4879 69.9397 64.4879C70.4998 64.4879 70.9095 64.3985 71.1689 64.2182C71.4282 64.0379 71.5582 63.7512 71.5582 63.3589V63.0173H69.7829V62.4904H72.1654V63.3589C72.1654 63.9477 71.9869 64.3766 71.6299 64.6457C71.2722 64.9147 70.7064 65.0493 69.9333 65.0493C69.0225 65.0493 68.3682 64.8563 67.9697 64.471C67.5719 64.0857 67.373 63.4617 67.373 62.5996Z" fill="#292929"/>
<path d="M81.575 61.1734C81.2833 61.472 81.1378 61.9495 81.1378 62.6067C81.1378 63.2631 81.2833 63.7413 81.575 64.04C81.8659 64.3386 82.3347 64.4879 82.9813 64.4879C83.6271 64.4879 84.0973 64.3386 84.3911 64.04C84.6848 63.7413 84.8317 63.2631 84.8317 62.6067C84.8317 61.9495 84.6848 61.472 84.3911 61.1734C84.0973 60.874 83.6271 60.7247 82.9813 60.7247C82.3347 60.7247 81.8659 60.874 81.575 61.1734ZM81.1209 60.7423C81.5054 60.3563 82.1252 60.1641 82.9813 60.1641C83.8366 60.1641 84.4578 60.3578 84.8451 60.7451C85.2316 61.1332 85.4256 61.7537 85.4256 62.6067C85.4256 63.4596 85.2316 64.0801 84.8451 64.4675C84.4578 64.8556 83.8366 65.0493 82.9813 65.0493C82.1252 65.0493 81.5054 64.8563 81.1209 64.471C80.7358 64.0857 80.5439 63.4638 80.5439 62.6067C80.5439 61.7488 80.7358 61.1276 81.1209 60.7423Z" fill="#292929"/>
<path d="M42.2539 27.7173C33.918 27.7173 27.1367 34.5133 27.1367 42.8673C27.1367 51.2206 33.918 58.0173 42.2539 58.0173C50.5891 58.0173 57.3711 51.2206 57.3711 42.8673C57.3711 34.5133 50.5891 27.7173 42.2539 27.7173ZM42.2539 58.7829C33.4963 58.7829 26.3721 51.6432 26.3721 42.8673C26.3721 34.0914 33.4963 26.9517 42.2539 26.9517C51.0108 26.9517 58.135 34.0914 58.135 42.8673C58.135 51.6432 51.0108 58.7829 42.2539 58.7829Z" fill="#292929"/>
<path d="M60.6426 27.7173C52.3067 27.7173 45.5254 34.5133 45.5254 42.8673C45.5254 51.2206 52.3067 58.0173 60.6426 58.0173C68.9778 58.0173 75.7598 51.2206 75.7598 42.8673C75.7598 34.5133 68.9778 27.7173 60.6426 27.7173ZM60.6426 58.7829C51.885 58.7829 44.7607 51.6432 44.7607 42.8673C44.7607 34.0914 51.885 26.9517 60.6426 26.9517C69.3994 26.9517 76.5237 34.0914 76.5237 42.8673C76.5237 51.6432 69.3994 58.7829 60.6426 58.7829Z" fill="#292929"/>
<path d="M16.5752 52.385V48.9922H33.6736C34.5204 48.9922 35.1972 48.2168 35.1972 47.2955C35.1972 46.3503 34.5204 45.5988 33.6736 45.5988H21.8237C18.9457 45.5988 16.5752 43.321 16.5752 40.5093C16.5752 37.6977 18.9457 35.4192 21.8237 35.4192H37.229V38.8126H21.8237C21.0014 38.8126 20.3 39.5641 20.3 40.5093C20.3 41.4299 21.0014 42.2054 21.8237 42.2054H33.6736C36.5761 42.2054 38.9221 44.4839 38.9221 47.2955C38.9221 50.1072 36.5761 52.385 33.6736 52.385H16.5752Z" fill="#292929"/>
<path d="M61.7585 35.4192V38.8126H53.2939V52.385H49.5691V38.8126H41.1046V35.4192H61.7585Z" fill="#292929"/>
<path d="M70.0197 38.8126C69.1729 38.8126 68.4961 39.5641 68.4961 40.5093V43.9021H83.732V47.2955H68.4961V52.385H64.7712V40.5093C64.7712 37.6977 67.1172 35.4192 70.0197 35.4192H85.4251V38.8126H70.0197Z" fill="#292929"/>
</g>
<defs>
<clipPath id="clip0_638_1145">
<rect width="102" height="92" fill="white"/>
</clipPath>
</defs>
</svg>
