<svg width="187" height="168" viewBox="0 0 187 168" fill="none" xmlns="http://www.w3.org/2000/svg">
<g clip-path="url(#clip0_638_1167)">
<rect width="187" height="168" fill="#1B4A9D"/>
<mask id="mask0_638_1167" style="mask-type:luminance" maskUnits="userSpaceOnUse" x="0" y="0" width="187" height="168">
<path d="M0 0H187V167.999H0V0Z" fill="white"/>
</mask>
<g mask="url(#mask0_638_1167)">
<path d="M187 167.999H0V0.0012207H187V167.999Z" fill="#1B4A9D"/>
</g>
<path d="M37.5467 118.699H30.3867V109.953H37.5467V110.976H31.4755V113.838H36.9205V114.813H31.4755V117.673H37.5467V118.699Z" fill="#FAFAFA"/>
<path d="M54.3954 118.699H53.3066V109.953H54.3954L60.5542 117.124V109.953H61.6443V118.699H60.5542L54.3954 111.538V118.699Z" fill="#FAFAFA"/>
<path d="M84.8631 118.699H77.7031V109.953H84.8631V110.976H78.7919V113.838H84.2369V114.813H78.7919V117.673H84.8631V118.699Z" fill="#FAFAFA"/>
<path d="M101.712 114.212H105.067C105.742 114.212 106.234 114.084 106.544 113.825C106.853 113.568 107.006 113.155 107.006 112.588C107.006 112.031 106.853 111.622 106.544 111.364C106.234 111.106 105.742 110.976 105.067 110.976H101.712V114.212ZM101.712 118.699H100.623V109.953H105.129C106.163 109.953 106.917 110.149 107.389 110.546C107.859 110.942 108.096 111.572 108.096 112.439C108.096 113.605 107.666 114.359 106.806 114.7C107.625 114.992 108.033 115.641 108.033 116.65V118.699H106.944V116.687C106.944 116.179 106.8 115.81 106.513 115.581C106.224 115.352 105.763 115.237 105.129 115.237H101.712V118.699Z" fill="#FAFAFA"/>
<path d="M123.518 114.313C123.518 112.755 123.872 111.625 124.581 110.921C125.291 110.216 126.424 109.865 127.986 109.865C129.246 109.865 130.221 110.088 130.915 110.533C131.607 110.979 132.061 111.685 132.279 112.651H131.14C130.732 111.477 129.679 110.889 127.986 110.889C126.801 110.889 125.941 111.162 125.406 111.708C124.873 112.254 124.606 113.126 124.606 114.326C124.606 115.533 124.885 116.408 125.444 116.949C126.003 117.491 126.929 117.761 128.223 117.761C129.25 117.761 130.001 117.598 130.477 117.268C130.952 116.939 131.19 116.416 131.19 115.699V115.075H127.936V114.113H132.304V115.699C132.304 116.774 131.976 117.558 131.322 118.049C130.666 118.54 129.629 118.786 128.211 118.786C126.542 118.786 125.342 118.434 124.611 117.73C123.882 117.027 123.518 115.887 123.518 114.313Z" fill="#FAFAFA"/>
<path d="M149.553 111.708C149.019 112.253 148.752 113.125 148.752 114.325C148.752 115.524 149.019 116.397 149.553 116.943C150.087 117.488 150.946 117.761 152.131 117.761C153.316 117.761 154.178 117.488 154.716 116.943C155.255 116.397 155.524 115.524 155.524 114.325C155.524 113.125 155.255 112.253 154.716 111.708C154.178 111.161 153.316 110.889 152.131 110.889C150.946 110.889 150.087 111.161 149.553 111.708ZM148.721 110.921C149.426 110.216 150.562 109.865 152.131 109.865C153.7 109.865 154.839 110.219 155.548 110.926C156.257 111.635 156.613 112.768 156.613 114.325C156.613 115.883 156.257 117.016 155.548 117.723C154.839 118.432 153.7 118.786 152.131 118.786C150.562 118.786 149.426 118.433 148.721 117.73C148.015 117.026 147.663 115.891 147.663 114.325C147.663 112.759 148.015 111.624 148.721 110.921Z" fill="#FAFAFA"/>
<path d="M77.4663 50.6141C62.1838 50.6141 49.7515 63.0243 49.7515 78.2794C49.7515 93.5333 62.1838 105.945 77.4663 105.945C92.7475 105.945 105.181 93.5333 105.181 78.2794C105.181 63.0243 92.7475 50.6141 77.4663 50.6141ZM77.4663 107.343C61.4108 107.343 48.3496 94.305 48.3496 78.2794C48.3496 62.2539 61.4108 49.2161 77.4663 49.2161C93.5206 49.2161 106.582 62.2539 106.582 78.2794C106.582 94.305 93.5206 107.343 77.4663 107.343Z" fill="#FAFAFA"/>
<path d="M111.179 50.6144C95.8967 50.6144 83.4643 63.0245 83.4643 78.2797C83.4643 93.5335 95.8967 105.945 111.179 105.945C126.46 105.945 138.894 93.5335 138.894 78.2797C138.894 63.0245 126.46 50.6144 111.179 50.6144ZM111.179 107.343C95.1237 107.343 82.0625 94.3052 82.0625 78.2797C82.0625 62.2541 95.1237 49.2163 111.179 49.2163C127.233 49.2163 140.295 62.2541 140.295 78.2797C140.295 94.3052 127.233 107.343 111.179 107.343Z" fill="#FAFAFA"/>
<path d="M30.3867 95.6592V89.4638H61.7338C63.2864 89.4638 64.5271 88.0477 64.5271 86.3654C64.5271 84.6394 63.2864 83.2671 61.7338 83.2671H40.009C34.7327 83.2671 30.3867 79.1076 30.3867 73.9733C30.3867 68.8389 34.7327 64.6782 40.009 64.6782H68.2521V70.8749H40.009C38.5015 70.8749 37.2156 72.2473 37.2156 73.9733C37.2156 75.6543 38.5015 77.0704 40.009 77.0704H61.7338C67.0551 77.0704 71.356 81.2311 71.356 86.3654C71.356 91.4998 67.0551 95.6592 61.7338 95.6592H30.3867Z" fill="#FAFAFA"/>
<path d="M113.224 64.6785V70.8752H97.7055V95.6595H90.8767V70.8752H75.3584V64.6785H113.224Z" fill="#FAFAFA"/>
<path d="M128.369 70.8749C126.817 70.8749 125.576 72.2473 125.576 73.9733V80.1687H153.509V86.3654H125.576V95.6592H118.747V73.9733C118.747 68.8389 123.048 64.6782 128.369 64.6782H156.612V70.8749H128.369Z" fill="#FAFAFA"/>
</g>
<defs>
<clipPath id="clip0_638_1167">
<rect width="187" height="168" fill="white"/>
</clipPath>
</defs>
</svg>
